HIERARCHY
ROOT Hips
{
	OFFSET 0.000000 100.481300 0.000000
	CHANNELS 6 Xposition Yposition Zposition Xrotation Yrotation Zrotation
	JOINT Spine
	{
		OFFSET -0.279200 12.230698 -2.892100
		CHANNELS 3 Xrotation Yrotation Zrotation
		JOINT Spine1
		{
			OFFSET -0.325700 14.269203 -3.374200
			CHANNELS 3 Xrotation Yrotation Zrotation
			JOINT Spine2
			{
				OFFSET -0.372300 16.307602 -0.352600
				CHANNELS 3 Xrotation Yrotation Zrotation
				JOINT Neck
				{
					OFFSET -0.418800 17.814194 8.416900
					CHANNELS 3 Xrotation Yrotation Zrotation
					JOINT Head
					{
						OFFSET 0.000000 7.031097 3.806800
						CHANNELS 3 Xrotation Yrotation Zrotation
						JOINT HeadTop_End
						{
							OFFSET 0.000000 24.646606 12.978600
							CHANNELS 3 Xrotation Yrotation Zrotation
							End Site
							{
								OFFSET 0.000000 27.854965 0.000000
							}
						}
					}
				}
				JOINT LeftShoulder
				{
					OFFSET 16.952999 14.495407 -7.737500
					CHANNELS 3 Xrotation Yrotation Zrotation
					JOINT LeftArm
					{
						OFFSET 9.308998 -2.777710 0.208600
						CHANNELS 3 Xrotation Yrotation Zrotation
						JOINT LeftForeArm
						{
							OFFSET 29.972298 0.000000 0.000000
							CHANNELS 3 Xrotation Yrotation Zrotation
							JOINT LeftHand
							{
								OFFSET 26.026505 0.000000 0.000000
								CHANNELS 3 Xrotation Yrotation Zrotation
								JOINT LeftHandThumb1
								{
									OFFSET 12.240501 -7.147949 9.207150
									CHANNELS 3 Xrotation Yrotation Zrotation
									JOINT LeftHandThumb2
									{
										OFFSET 4.138618 -2.389435 2.389433
										CHANNELS 3 Xrotation Yrotation Zrotation
										JOINT LeftHandThumb3
										{
											OFFSET 2.726913 -1.574387 1.574386
											CHANNELS 3 Xrotation Yrotation Zrotation
											JOINT LeftHandThumb4
											{
												OFFSET 3.941010 -2.275345 2.275342
												CHANNELS 3 Xrotation Yrotation Zrotation
												End Site
												{
													OFFSET -0.005798 5.087799 0.009903
												}
											}
										}
									}
								}
								JOINT LeftHandIndex1
								{
									OFFSET 24.424698 -1.985611 5.953459
									CHANNELS 3 Xrotation Yrotation Zrotation
									JOINT LeftHandIndex2
									{
										OFFSET 6.426697 0.000000 0.000000
										CHANNELS 3 Xrotation Yrotation Zrotation
										JOINT LeftHandIndex3
										{
											OFFSET 5.337898 0.000000 0.000000
											CHANNELS 3 Xrotation Yrotation Zrotation
											JOINT LeftHandIndex4
											{
												OFFSET 4.409401 0.000000 0.000000
												CHANNELS 3 Xrotation Yrotation Zrotation
												End Site
												{
													OFFSET 0.000000 4.409363 0.014373
												}
											}
										}
									}
								}
								JOINT LeftHandMiddle1
								{
									OFFSET 23.810104 0.000000 0.000000
									CHANNELS 3 Xrotation Yrotation Zrotation
									JOINT LeftHandMiddle2
									{
										OFFSET 7.176498 0.000000 0.000000
										CHANNELS 3 Xrotation Yrotation Zrotation
										JOINT LeftHandMiddle3
										{
											OFFSET 6.774902 0.000000 0.000000
											CHANNELS 3 Xrotation Yrotation Zrotation
											JOINT LeftHandMiddle4
											{
												OFFSET 5.403328 0.000000 0.000000
												CHANNELS 3 Xrotation Yrotation Zrotation
												End Site
												{
													OFFSET -0.027702 5.403244 0.017414
												}
											}
										}
									}
								}
								JOINT LeftHandRing1
								{
									OFFSET 22.908401 -0.839279 -6.020567
									CHANNELS 3 Xrotation Yrotation Zrotation
									JOINT LeftHandRing2
									{
										OFFSET 6.337502 0.000000 0.000000
										CHANNELS 3 Xrotation Yrotation Zrotation
										JOINT LeftHandRing3
										{
											OFFSET 5.779297 0.000000 0.000000
											CHANNELS 3 Xrotation Yrotation Zrotation
											JOINT LeftHandRing4
											{
												OFFSET 4.965698 0.000000 0.000000
												CHANNELS 3 Xrotation Yrotation Zrotation
												End Site
												{
													OFFSET 0.000000 4.965668 0.016186
												}
											}
										}
									}
								}
								JOINT LeftHandPinky1
								{
									OFFSET 20.037003 -1.530319 -10.950146
									CHANNELS 3 Xrotation Yrotation Zrotation
									JOINT LeftHandPinky2
									{
										OFFSET 5.254700 0.000000 0.000000
										CHANNELS 3 Xrotation Yrotation Zrotation
										JOINT LeftHandPinky3
										{
											OFFSET 4.810204 0.000000 0.000000
											CHANNELS 3 Xrotation Yrotation Zrotation
											JOINT LeftHandPinky4
											{
												OFFSET 3.647202 0.000000 0.000000
												CHANNELS 3 Xrotation Yrotation Zrotation
												End Site
												{
													OFFSET 0.000000 3.647186 0.011889
												}
											}
										}
									}
								}
							}
						}
					}
				}
				JOINT RightShoulder
				{
					OFFSET -15.141001 14.495407 -7.737500
					CHANNELS 3 Xrotation Yrotation Zrotation
					JOINT RightArm
					{
						OFFSET -9.308998 -2.777710 0.208500
						CHANNELS 3 Xrotation Yrotation Zrotation
						JOINT RightForeArm
						{
							OFFSET -29.972300 0.000000 0.000000
							CHANNELS 3 Xrotation Yrotation Zrotation
							JOINT RightHand
							{
								OFFSET -26.026505 0.000000 0.000000
								CHANNELS 3 Xrotation Yrotation Zrotation
								JOINT RightHandThumb1
								{
									OFFSET -12.240601 -7.148026 9.207092
									CHANNELS 3 Xrotation Yrotation Zrotation
									JOINT RightHandThumb2
									{
										OFFSET -4.138618 -2.389435 2.389433
										CHANNELS 3 Xrotation Yrotation Zrotation
										JOINT RightHandThumb3
										{
											OFFSET -2.726974 -1.574417 1.574421
											CHANNELS 3 Xrotation Yrotation Zrotation
											JOINT RightHandThumb4
											{
												OFFSET -3.941010 -2.275345 2.275343
												CHANNELS 3 Xrotation Yrotation Zrotation
												End Site
												{
													OFFSET 0.005814 5.087799 0.009927
												}
											}
										}
									}
								}
								JOINT RightHandIndex1
								{
									OFFSET -24.424698 -1.985657 5.953444
									CHANNELS 3 Xrotation Yrotation Zrotation
									JOINT RightHandIndex2
									{
										OFFSET -6.426697 0.000000 0.000000
										CHANNELS 3 Xrotation Yrotation Zrotation
										JOINT RightHandIndex3
										{
											OFFSET -5.337898 0.000000 0.000000
											CHANNELS 3 Xrotation Yrotation Zrotation
											JOINT RightHandIndex4
											{
												OFFSET -4.409401 0.000000 0.000000
												CHANNELS 3 Xrotation Yrotation Zrotation
												End Site
												{
													OFFSET 0.000000 4.409363 0.014408
												}
											}
										}
									}
								}
								JOINT RightHandMiddle1
								{
									OFFSET -23.810097 0.000000 0.000000
									CHANNELS 3 Xrotation Yrotation Zrotation
									JOINT RightHandMiddle2
									{
										OFFSET -7.176498 0.000000 0.000000
										CHANNELS 3 Xrotation Yrotation Zrotation
										JOINT RightHandMiddle3
										{
											OFFSET -6.774902 0.000000 0.000000
											CHANNELS 3 Xrotation Yrotation Zrotation
											JOINT RightHandMiddle4
											{
												OFFSET -5.403328 0.000000 0.000000
												CHANNELS 3 Xrotation Yrotation Zrotation
												End Site
												{
													OFFSET 0.027702 5.403244 0.017457
												}
											}
										}
									}
								}
								JOINT RightHandRing1
								{
									OFFSET -22.908302 -0.839325 -6.020576
									CHANNELS 3 Xrotation Yrotation Zrotation
									JOINT RightHandRing2
									{
										OFFSET -6.337502 0.000000 0.000000
										CHANNELS 3 Xrotation Yrotation Zrotation
										JOINT RightHandRing3
										{
											OFFSET -5.779297 0.000000 0.000000
											CHANNELS 3 Xrotation Yrotation Zrotation
											JOINT RightHandRing4
											{
												OFFSET -4.965698 0.000000 0.000000
												CHANNELS 3 Xrotation Yrotation Zrotation
												End Site
												{
													OFFSET 0.000000 4.965668 0.016226
												}
											}
										}
									}
								}
								JOINT RightHandPinky1
								{
									OFFSET -20.037003 -1.530334 -10.950259
									CHANNELS 3 Xrotation Yrotation Zrotation
									JOINT RightHandPinky2
									{
										OFFSET -5.254700 0.000000 0.000000
										CHANNELS 3 Xrotation Yrotation Zrotation
										JOINT RightHandPinky3
										{
											OFFSET -4.810204 0.000000 0.000000
											CHANNELS 3 Xrotation Yrotation Zrotation
											JOINT RightHandPinky4
											{
												OFFSET -3.647202 0.000000 0.000000
												CHANNELS 3 Xrotation Yrotation Zrotation
												End Site
												{
													OFFSET 0.000000 3.647186 0.011917
												}
											}
										}
									}
								}
							}
						}
					}
				}
			}
		}
	}
	JOINT LeftUpLeg
	{
		OFFSET 15.427100 -6.655098 0.678600
		CHANNELS 3 Xrotation Yrotation Zrotation
		JOINT LeftLeg
		{
			OFFSET 4.081073 -39.591068 13.024000
			CHANNELS 3 Xrotation Yrotation Zrotation
			JOINT LeftFoot
			{
				OFFSET -4.081074 -37.707932 -15.979700
				CHANNELS 3 Xrotation Yrotation Zrotation
				JOINT LeftToeBase
				{
					OFFSET 5.346399 -15.068900 20.645000
					CHANNELS 3 Xrotation Yrotation Zrotation
					JOINT LeftToe_End
					{
						OFFSET 2.754700 0.931300 11.300900
						CHANNELS 3 Xrotation Yrotation Zrotation
						End Site
						{
							OFFSET 0.000000 11.669021 0.000000
						}
					}
				}
			}
		}
	}
	JOINT RightUpLeg
	{
		OFFSET -15.569500 -6.655098 0.678600
		CHANNELS 3 Xrotation Yrotation Zrotation
		JOINT RightLeg
		{
			OFFSET -4.081825 -39.591045 13.023800
			CHANNELS 3 Xrotation Yrotation Zrotation
			JOINT RightFoot
			{
				OFFSET 4.081824 -37.707954 -15.979600
				CHANNELS 3 Xrotation Yrotation Zrotation
				JOINT RightToeBase
				{
					OFFSET -5.346400 -15.068900 20.645000
					CHANNELS 3 Xrotation Yrotation Zrotation
					JOINT RightToe_End
					{
						OFFSET -2.754700 0.931300 11.300900
						CHANNELS 3 Xrotation Yrotation Zrotation
						End Site
						{
							OFFSET 0.000000 11.669021 0.000000
						}
					}
				}
			}
		}
	}
}
MOTION
Frames: 4
Frame Time: 0.033333
0.006580 12.181717 4.122093 -50.048215 -1.963331 -1.658932 10.481728 1.102217 0.103948 20.981023 0.116371 -1.380283 20.981031 0.116370 -1.380283 -5.530148 -2.021163 3.556680 -9.176953 2.301600 0.264307 0.000001 -0.000000 0.000000 -1.036319 5.131178 -4.969371 2.260545 -33.129091 -58.187386 0.538377 -77.507313 0.620525 73.982096 -9.213613 19.568166 -3.328333 7.085362 1.023560 4.048583 10.195694 2.377000 -0.000002 0.000006 -0.000000 0.000000 -0.000001 0.000001 -5.297311 -2.051117 -39.767308 0.136574 0.898903 -25.992611 -0.000000 0.000001 0.000005 -0.000003 0.000001 0.000002 -1.925613 3.981111 -28.849889 -0.562025 -2.241641 -23.090918 0.000001 0.000004 -0.000002 0.000001 -0.000004 -0.000002 0.295162 8.999305 -20.319710 -0.772807 -3.677454 -27.573552 -0.000001 -0.000002 -0.000001 -0.000000 -0.000000 -0.000001 0.694833 12.270881 -19.078650 -0.484643 -5.044553 -11.247480 -0.000000 -0.000001 -0.000001 0.000000 -0.000000 0.000000 -7.222519 -0.021450 18.968209 21.797963 18.766069 52.757734 6.689625 90.300333 -6.640295 71.380463 -3.725975 -27.041895 -2.027902 -6.975269 -2.360557 2.089640 -6.080026 -2.749587 0.000001 0.000001 -0.000002 -0.000001 -0.000001 -0.000000 0.259240 -3.723121 18.735334 0.131170 -1.149314 17.690149 0.000003 -0.000003 0.000001 0.000001 0.000000 0.000001 0.509208 -8.493244 15.571959 -0.221742 0.910538 8.225127 -0.000001 -0.000006 -0.000000 0.000000 0.000001 0.000000 2.045857 -9.444151 11.365188 -0.546291 3.375591 18.806122 -0.000000 -0.000001 -0.000000 -0.000001 -0.000000 -0.000000 -2.696225 -19.126121 12.594946 -1.078239 7.469317 21.982518 -0.000002 -0.000001 0.000000 -0.000000 0.000000 -0.000004 -64.083785 51.068259 11.431475 15.414992 1.627496 0.002178 31.482760 7.507261 17.934146 0.002989 -0.026185 0.062616 -0.000003 -0.000003 0.000001 -53.291110 -17.946384 -0.314088 11.085780 7.274455 3.848547 13.340608 -4.778411 -3.146100 0.251582 -0.110403 0.262828 -0.000001 0.000002 -0.000000 
0.007997 12.178726 4.122116 -50.048481 -1.963251 -1.659036 10.488595 1.109668 0.102069 20.995037 0.130504 -1.385036 20.995047 0.130505 -1.385035 -5.583385 -2.018923 3.565957 -9.206741 2.297263 0.239746 -0.000001 0.000000 -0.000000 -1.053258 5.049053 -5.085160 2.255840 -32.999222 -58.126774 0.542809 -77.580697 0.624449 74.047870 -9.266938 19.470313 -3.328334 7.085358 1.023562 4.048583 10.195696 2.377001 -0.000002 0.000008 -0.000001 0.000000 -0.000000 0.000000 -5.297301 -2.051112 -39.767277 0.136574 0.898902 -25.992618 -0.000007 0.000003 0.000003 -0.000000 -0.000000 0.000003 -1.925615 3.981104 -28.849889 -0.562025 -2.241639 -23.090918 0.000000 0.000003 0.000001 0.000002 -0.000001 -0.000002 0.295158 8.999299 -20.319700 -0.772808 -3.677453 -27.573556 -0.000002 -0.000002 -0.000002 0.000000 -0.000000 0.000002 0.694832 12.270878 -19.078643 -0.484643 -5.044556 -11.247483 -0.000001 -0.000003 0.000001 0.000001 -0.000002 -0.000000 -7.221996 -0.026619 18.975743 21.705972 18.714023 52.824898 6.976661 90.286966 -6.927701 71.417250 -3.669172 -27.026299 -2.027904 -6.975265 -2.360561 2.089639 -6.080026 -2.749584 0.000002 0.000002 -0.000004 -0.000000 0.000000 0.000001 0.259240 -3.723119 18.735334 0.131170 -1.149313 17.690151 0.000002 -0.000001 0.000000 -0.000000 0.000000 -0.000002 0.509205 -8.493240 15.571957 -0.221742 0.910538 8.225127 -0.000000 -0.000005 0.000000 0.000000 -0.000000 0.000000 2.045853 -9.444152 11.365183 -0.546291 3.375591 18.806120 -0.000000 -0.000000 -0.000001 -0.000000 0.000000 0.000000 -2.699827 -19.111361 12.592997 -1.078238 7.469316 21.982518 -0.000000 -0.000000 -0.000002 0.000000 0.000002 -0.000002 -64.083840 51.070206 11.429399 15.413449 1.627338 0.002239 31.483658 7.507559 17.937282 0.002990 -0.026184 0.062615 0.000001 0.000000 -0.000002 -53.293132 -17.944533 -0.314867 11.085163 7.274411 3.848570 13.343222 -4.780249 -3.144852 0.180555 -0.110208 0.262618 0.000001 0.000002 -0.000000 
0.010631 12.176666 4.122261 -50.048648 -1.963155 -1.659103 10.496105 1.117103 0.100493 21.010406 0.144750 -1.389126 21.010398 0.144750 -1.389125 -5.623874 -2.016625 3.574060 -9.202217 2.271696 0.221400 -0.000000 0.000000 -0.000000 -1.069198 4.970043 -5.189887 2.244017 -32.890171 -58.067803 0.546904 -77.642852 0.628039 74.098352 -9.310548 19.381000 -3.328334 7.085362 1.023562 4.048582 10.195691 2.377001 -0.000002 0.000008 -0.000001 0.000000 -0.000000 0.000000 -5.297296 -2.051091 -39.767308 0.136573 0.898905 -25.992618 -0.000004 0.000001 -0.000002 -0.000002 -0.000001 0.000004 -1.925610 3.981122 -28.849899 -0.562025 -2.241641 -23.090918 0.000002 0.000002 0.000003 0.000002 -0.000000 -0.000002 0.295163 8.999330 -20.319715 -0.772807 -3.677452 -27.573549 -0.000002 -0.000001 -0.000003 -0.000003 -0.000001 -0.000003 0.694827 12.270871 -19.078651 -0.484643 -5.044553 -11.247480 -0.000000 0.000000 0.000002 -0.000001 0.000000 -0.000000 -7.216807 -0.042337 18.947778 21.595392 18.697298 52.917444 7.973707 90.245077 -7.925667 71.449304 -3.612819 -27.032856 -2.027901 -6.975267 -2.360558 2.089639 -6.080024 -2.749586 0.000001 0.000001 -0.000003 0.000000 -0.000000 0.000000 0.259236 -3.723104 18.735327 0.131170 -1.149313 17.690149 0.000002 -0.000002 0.000001 0.000000 0.000001 0.000001 0.509197 -8.493203 15.571959 -0.221742 0.910538 8.225126 -0.000001 -0.000005 -0.000001 -0.000000 -0.000001 -0.000000 2.045853 -9.444144 11.365183 -0.546291 3.375591 18.806122 -0.000000 0.000002 0.000001 -0.000000 0.000001 -0.000000 -2.699836 -19.111310 12.592995 -1.078237 7.469315 21.982518 0.000000 -0.000001 0.000001 0.000000 -0.000000 0.000000 -64.082344 51.071957 11.426014 15.412341 1.627244 0.002328 31.483197 7.508149 17.939968 0.002987 -0.026185 0.062618 -0.000000 -0.000001 -0.000001 -53.295099 -17.941997 -0.316646 11.084942 7.274423 3.848576 13.345405 -4.782213 -3.142497 0.163938 -0.110171 0.262566 0.000002 0.000001 -0.000000 
0.014046 12.175835 4.122566 -50.048761 -1.962992 -1.659131 10.503150 1.125137 0.098982 21.024857 0.160329 -1.393180 21.024842 0.160329 -1.393180 -5.645837 -2.016507 3.583039 -9.132175 2.218553 0.212461 -0.000000 -0.000000 0.000000 -1.083858 4.893850 -5.278912 2.223522 -32.804347 -58.015791 0.550225 -77.687781 0.630928 74.134682 -9.346271 19.301266 -3.328333 7.085356 1.023562 4.048582 10.195694 2.377000 -0.000002 0.000010 -0.000001 -0.000000 0.000000 0.000000 -5.297304 -2.051120 -39.767291 0.136573 0.898903 -25.992618 -0.000000 0.000002 0.000003 -0.000000 -0.000002 0.000003 -1.925611 3.981105 -28.849889 -0.562025 -2.241644 -23.090921 0.000003 -0.000001 0.000001 0.000004 -0.000001 0.000002 0.295160 8.999294 -20.319698 -0.772807 -3.677454 -27.573554 -0.000003 -0.000003 -0.000000 -0.000001 0.000001 0.000002 0.694829 12.270858 -19.078646 -0.484643 -5.044552 -11.247480 -0.000000 -0.000001 0.000003 -0.000001 -0.000000 0.000001 -7.207181 -0.069164 18.888384 21.474750 18.716091 53.027014 12.083651 90.176406 -12.034826 71.469208 -3.562439 -27.061368 -2.027902 -6.975266 -2.360553 2.089639 -6.080026 -2.749587 0.000002 0.000002 -0.000002 0.000000 0.000000 -0.000000 0.259231 -3.723101 18.735334 0.131170 -1.149313 17.690149 0.000002 -0.000004 -0.000002 0.000000 -0.000001 -0.000002 0.509206 -8.493240 15.571962 -0.221742 0.910538 8.225128 -0.000001 -0.000005 -0.000001 0.000000 -0.000001 0.000001 2.045852 -9.444157 11.365184 -0.546291 3.375591 18.806123 -0.000000 -0.000001 -0.000000 0.000000 -0.000001 -0.000000 -2.699832 -19.111344 12.593002 -1.078236 7.469316 21.982518 0.000000 -0.000000 -0.000000 0.000000 0.000000 -0.000002 -64.079715 51.073436 11.421926 15.412334 1.627379 0.002434 31.480998 7.508723 17.942111 0.002985 -0.026187 0.062617 0.000001 -0.000002 0.000003 -53.296895 -17.938667 -0.319195 11.085736 7.274370 3.848565 13.346149 -4.784547 -3.139283 0.182891 -0.110206 0.262622 0.000000 -0.000000 0.000000 
